#N canvas 563 45 777 502 12;
#X declare -path ..;
#X obj 70 190 clock_div;
#X floatatom 102 43 5 0 0 0 - - -, f 5;
#X obj 70 66 metro;
#X obj 70 94 float;
#X obj 121 95 + 1;
#X floatatom 70 117 5 0 0 0 - - -, f 5;
#X msg 26 89 0;
#X obj 26 66 sel 1;
#X obj 27 40 tgl 15 0 empty empty empty 17 7 0 10 #fcfcfc #000000 #000000
0 1;
#X obj 350 40 declare -path ..;
#X connect 1 0 2 1;
#X connect 2 0 3 0;
#X connect 3 0 5 0;
#X connect 4 0 3 1;
#X connect 5 0 4 0;
#X connect 5 0 0 0;
#X connect 6 0 5 0;
#X connect 7 0 6 0;
#X connect 8 0 7 0;
#X connect 8 0 2 0;
