#N canvas 231 25 1270 964 12;
#X declare -path ..;
#X obj 127 -710 * 2;
#X floatatom 147 -681 5 0 0 0 - - -, f 5;
#X msg 127 -761 320;
#X msg 127 -790 set \$1;
#X msg 77 -790 10;
#X obj 727 -530 bng 20 250 50 0 empty empty empty 17 7 0 10 #fcfcfc
#000000 #000000;
#X obj 1077 -381 bng 15 250 50 0 empty empty empty 17 7 0 10 #fcfcfc
#000000 #000000;
#X obj 727 -381 bng 15 250 50 0 empty empty empty 17 7 0 10 #fcfcfc
#000000 #000000;
#X obj 369 -764 metro;
#X obj 369 -790 tgl 20 0 empty empty empty 17 7 0 10 #d4fb79 #000000
#000000 1 1;
#X msg 401 -790 3000;
#X obj 766 -684 tgl 20 0 empty empty empty 17 7 0 10 #fcfcfc #000000
#000000 0 1;
#X obj 727 -650 spigot;
#X obj 516 -27 noise~;
#X obj 567 -27 vline~;
#X obj 516 13 *~;
#X obj 667 -171 mtof;
#X obj 667 -112 expr 1000 / $f1;
#X floatatom 667 -83 5 0 0 0 - - -, f 5;
#X obj 667 -55 delread4~ \$0-ks;
#X obj 667 -26 *~ 0.99;
#X obj 667 3 lop~ 10000;
#X obj 897 91 *~ 0.25;
#X obj 727 -310 bng 15 250 50 0 empty empty empty 17 7 0 10 #fcfcfc
#000000 #000000;
#X obj 727 -286 t b b b;
#X msg 667 -240 60;
#X obj 516 46 delwrite~ \$0-ks 500;
#X obj 827 -150 hsl 100 15 1 30 1 1 empty empty empty -2 -8 0 10 #fcfcfc
#000000 #000000 5350 1;
#X floatatom 827 -128 5 0 0 0 - - -, f 5;
#X obj 897 61 *~;
#X obj 915 -26 osc~;
#X obj 915 3 +~ 1;
#X obj 915 32 *~ 0.5;
#X obj 915 -50 * 1;
#X obj 933 -100 hsl 100 15 0.1 8 1 1 empty empty empty -2 -8 0 10 #fcfcfc
#000000 #000000 6450 1;
#X floatatom 933 -78 5 0 0 0 - - -, f 5;
#X obj 667 -142 t f f f;
#X obj 785 -84 * 1;
#X obj 1043 -100 hsl 100 15 0 10 0 1 empty empty empty -2 -8 0 10 #fcfcfc
#000000 #000000 6732 1;
#X obj 1043 -76 int;
#X obj 963 0 hsl 100 15 0 1 0 1 empty empty empty -2 -8 0 10 #fcfcfc
#000000 #000000 2200 1;
#X obj 401 -820 loadbang;
#X obj 159 -571 noise~;
#X obj 159 -542 lop~ 100;
#X obj 159 -455 +~;
#X obj 159 -396 *~;
#X obj 159 -314 *~;
#X obj 177 -483 *~ -1;
#X obj 245 -480 hsl 100 15 0 100 0 1 empty empty empty -2 -8 0 10 #fcfcfc
#000000 #000000 9900 1;
#X floatatom 245 -427 5 0 0 0 - - -, f 5;
#X obj 245 -456 * 0.01;
#X obj 177 -340 * 0.5;
#X obj 177 -369 r \$0-osc-freq;
#X obj 177 -512 r~ \$0-osc-fb;
#X obj 141 -285 +~;
#X obj 141 -256 osc~;
#X obj 151 -227 s~ \$0-osc-fb;
#X obj 187 -72 hsl 100 15 0 1 0 1 empty empty empty -2 -8 0 10 #fcfcfc
#000000 #000000 2400 1;
#X obj 141 -48 *~ 0.25;
#X obj 159 -119 vline~;
#X obj 141 -90 *~;
#X obj 257 -290 bng 15 250 50 0 empty empty empty 17 7 0 10 #fcfcfc
#000000 #000000;
#X obj 727 -179 s \$0-osc-freq;
#X obj 57 -359 r \$0-osc-freq;
#X obj 295 -420 hsl 100 15 0 100 0 1 empty empty empty -2 -8 0 10 #fcfcfc
#000000 #000000 150 1;
#X floatatom 295 -367 5 0 0 0 - - -, f 5;
#X obj 295 -396 * 0.01;
#X obj 415 -420 hsl 100 15 0 100 0 1 empty empty empty -2 -8 0 10 #fcfcfc
#000000 #000000 50 1;
#X obj 415 -396 * 0.05;
#X obj 355 -480 hsl 100 15 0 100 0 1 empty empty empty -2 -8 0 10 #fcfcfc
#000000 #000000 2950 1;
#X obj 355 -456 * 0.05;
#X msg 761 -530 600;
#X floatatom 795 -555 5 0 0 0 - - -, f 5;
#X msg 795 -595 2;
#X msg 865 -595 1.2;
#X msg 905 -595 1.1;
#X obj 761 -625 loadbang;
#X msg 830 -595 1.25;
#X msg 829 -530 15;
#X obj 1077 -530 bng 20 250 50 0 empty empty empty 17 7 0 10 #fcfcfc
#000000 #000000;
#X obj 1116 -684 tgl 20 0 empty empty empty 17 7 0 10 #fcfcfc #000000
#000000 1 1;
#X obj 1077 -650 spigot;
#X obj 1111 -625 loadbang;
#X msg 1145 -577 1.25;
#X msg 1111 -530 15;
#X msg 1179 -530 600;
#X obj 1145 -550 hsl 100 15 1.08 5 1 1 empty empty empty -2 -8 0 10
#fcfcfc #000000 #000000 944 1;
#X floatatom 1227 -490 5 0 0 0 - - -, f 5;
#X text 1227 -462 stop after #;
#X obj 1066 -790 tgl 20 0 empty empty empty 17 7 0 10 #fcfcfc #000000
#000000 1 1;
#X obj 1027 -760 spigot;
#X msg 451 -790 1400;
#X obj 667 -211 -;
#X msg 1135 -340 0.1;
#X msg 1080 -340 1;
#X obj 970 -174 s \$0-relaxer;
#X obj 800 -300 r \$0-relaxer;
#X obj 943 62 hsl 100 15 0 1 0 1 empty empty empty -2 -8 0 10 #fcfcfc
#000000 #000000 5200 1;
#X obj 350 -900 declare -path ..;
#X obj 727 -500 bounce;
#X obj 1077 -500 drip;
#X obj 970 -310 relax_num;
#X msg 567 -54 1 8 \, 0 20 12;
#X floatatom 1090 -760 5 0 0 0 - - -, f 5;
#N canvas 0 22 450 300 rnddel 0;
#X obj 78 8 t b b;
#X msg 110 71 set \$1;
#X msg 110 153 251;
#X obj 110 179 delay;
#X obj 110 42 random 800;
#X obj 78 -23 inlet;
#X obj 177 -23 inlet;
#X obj 110 208 outlet;
#X floatatom 120 120 5 0 0 0 - - -, f 5;
#X connect 0 0 2 0;
#X connect 0 1 4 0;
#X connect 1 0 2 0;
#X connect 1 0 8 0;
#X connect 2 0 3 0;
#X connect 3 0 7 0;
#X connect 4 0 1 0;
#X connect 5 0 0 0;
#X connect 6 0 4 1;
#X coords 0 -1 1 1 69 50 1 100 100;
#X restore 1027 -731 pd rnddel;
#X msg 1090 -790 800;
#X msg 1150 -380 6.5;
#X msg 1110 -380 0.4;
#X msg 1130 -142 6;
#X msg 1170 -142 8;
#X msg 1090 -142 2;
#X msg 1335 -340 0.1;
#X obj 1170 -310 contract_num;
#X obj 1170 -174 + 8;
#X msg 1280 -340 3;
#X obj 1279 -170 tgl 20 0 empty empty empty 17 7 0 10 #fcfcfc #000000
#000000 1 1;
#X obj 1240 -140 spigot;
#X floatatom 210 420 5 0 0 0 - - -, f 5;
#X obj 210 539 *~ 0.6;
#X obj 249 571 hsl 100 15 0 1 0 1 empty empty empty -2 -8 0 10 #fcfcfc
#000000 #000000 6750 1;
#X obj 310 240 del 500;
#X msg 310 269 1 50;
#X obj 260 220 bng 15 250 50 0 empty empty empty 17 7 0 10 #fcfcfc
#000000 #000000;
#X obj 260 310 line;
#X floatatom 260 339 5 0 0 0 - - -, f 5;
#X obj 235 376 *~ 1;
#X obj 120 380 hsl 100 15 0 1000 0 1 empty empty empty -2 -8 0 10 #fcfcfc
#000000 #000000 7800 1;
#X msg 260 269 0 60;
#X obj 210 600 *~ 0.5;
#X obj 1140 252 bng 15 250 50 0 empty empty empty 17 7 0 10 #fcfcfc
#000000 #000000;
#X obj 1140 342 line;
#X obj 1190 272 del 1000;
#X obj 1140 371 == 0;
#X obj 1140 430 bng 15 250 50 0 empty empty empty 17 7 0 10 #fcfcfc
#000000 #000000;
#X obj 1190 430 bng 15 250 50 0 empty empty empty 17 7 0 10 #fcfcfc
#000000 #000000;
#X obj 1190 371 > 0;
#X obj 1240 430 bng 15 250 50 0 empty empty empty 17 7 0 10 #fcfcfc
#000000 #000000;
#X obj 1240 371 == 1;
#X obj 1140 400 sel 1;
#X obj 1190 400 sel 1;
#X obj 1240 400 sel 1;
#X msg 1140 301 1 60;
#X msg 1190 301 0 60;
#X obj 340 90 bng 20 250 50 0 empty empty empty 17 7 0 10 #ffd479 #000000
#000000;
#X obj 620 479 dac~;
#X msg 159 -148 1 10 \, 0 30 10;
#X obj 645 440 catch~ \$0-audio;
#X obj 897 120 throw~ \$0-ks-out;
#X obj 141 -20 throw~ \$0-ks-out;
#X obj 580 209 catch~ \$0-ks-out;
#X obj 710 209 catch~ \$0-glitch-out;
#X obj 210 630 throw~ \$0-glitch-out;
#X obj 452 239 vline~;
#X obj 434 268 *~;
#X obj 710 258 *~;
#X obj 860 239 vline~;
#X obj 452 349 vline~;
#X obj 434 378 *~;
#X obj 260 180 del 1060;
#X obj 260 420 delwrite~ \$0-glitch_buf 500;
#X obj 210 450 delread~ \$0-glitch_buf 500;
#X obj 839 -270 tgl 20 0 empty empty empty 17 7 0 10 #fcfcfc #000000
#000000 1 1;
#X obj 800 -240 spigot;
#X msg 730 -240 0;
#X obj 860 -240 sel 0;
#X msg 860 210 1 40 \, 0 60 1000;
#X msg 452 210 1 40 \, 0 60 1000;
#X msg 452 320 0 40 \, 1 60 1000;
#X obj 210 489 lop~ 2000;
#X obj 290 490 hsl 100 15 20 15000 1 1 empty empty empty -2 -8 0 10
#fcfcfc #000000 #000000 8000 1;
#X connect 0 0 1 0;
#X connect 1 0 3 0;
#X connect 2 0 0 0;
#X connect 3 0 2 0;
#X connect 4 0 3 0;
#X connect 5 0 99 0;
#X connect 6 0 23 0;
#X connect 6 0 61 0;
#X connect 6 0 101 1;
#X connect 6 0 112 1;
#X connect 7 0 23 0;
#X connect 7 0 61 0;
#X connect 8 0 12 0;
#X connect 8 0 90 0;
#X connect 8 0 81 0;
#X connect 9 0 8 0;
#X connect 10 0 8 1;
#X connect 11 0 12 1;
#X connect 12 0 5 0;
#X connect 13 0 15 0;
#X connect 14 0 15 1;
#X connect 15 0 26 0;
#X connect 16 0 36 0;
#X connect 16 0 62 0;
#X connect 17 0 18 0;
#X connect 18 0 19 0;
#X connect 19 0 20 0;
#X connect 20 0 21 0;
#X connect 21 0 26 0;
#X connect 21 0 29 0;
#X connect 22 0 147 0;
#X connect 23 0 24 0;
#X connect 24 0 102 0;
#X connect 24 2 25 0;
#X connect 25 0 92 0;
#X connect 27 0 28 0;
#X connect 28 0 37 1;
#X connect 29 0 22 0;
#X connect 30 0 31 0;
#X connect 31 0 32 0;
#X connect 32 0 29 1;
#X connect 33 0 30 0;
#X connect 34 0 35 0;
#X connect 35 0 33 1;
#X connect 36 0 17 0;
#X connect 36 1 37 0;
#X connect 36 2 33 0;
#X connect 37 0 21 1;
#X connect 38 0 39 0;
#X connect 39 0 35 0;
#X connect 40 0 32 1;
#X connect 41 0 10 0;
#X connect 42 0 43 0;
#X connect 43 0 44 0;
#X connect 44 0 45 0;
#X connect 45 0 46 0;
#X connect 46 0 54 1;
#X connect 47 0 44 1;
#X connect 48 0 50 0;
#X connect 49 0 45 1;
#X connect 50 0 49 0;
#X connect 51 0 46 1;
#X connect 52 0 51 0;
#X connect 53 0 47 0;
#X connect 54 0 55 0;
#X connect 55 0 56 0;
#X connect 55 0 60 0;
#X connect 57 0 58 1;
#X connect 58 0 148 0;
#X connect 59 0 60 1;
#X connect 60 0 58 0;
#X connect 61 0 145 0;
#X connect 63 0 54 0;
#X connect 64 0 66 0;
#X connect 65 0 51 1;
#X connect 66 0 65 0;
#X connect 67 0 68 0;
#X connect 68 0 65 0;
#X connect 69 0 70 0;
#X connect 70 0 49 0;
#X connect 71 0 99 1;
#X connect 72 0 99 2;
#X connect 73 0 72 0;
#X connect 74 0 72 0;
#X connect 75 0 72 0;
#X connect 76 0 77 0;
#X connect 76 0 71 0;
#X connect 76 0 78 0;
#X connect 77 0 72 0;
#X connect 78 0 99 3;
#X connect 79 0 100 0;
#X connect 79 0 101 0;
#X connect 79 0 112 0;
#X connect 80 0 81 1;
#X connect 81 0 79 0;
#X connect 82 0 83 0;
#X connect 82 0 84 0;
#X connect 82 0 85 0;
#X connect 83 0 86 0;
#X connect 84 0 100 1;
#X connect 85 0 100 3;
#X connect 86 0 100 2;
#X connect 89 0 90 1;
#X connect 90 0 104 0;
#X connect 91 0 8 1;
#X connect 92 0 16 0;
#X connect 93 0 101 3;
#X connect 94 0 101 2;
#X connect 96 0 162 0;
#X connect 97 0 22 1;
#X connect 99 0 7 0;
#X connect 100 0 6 0;
#X connect 101 0 95 0;
#X connect 102 0 14 0;
#X connect 103 0 104 1;
#X connect 104 0 79 0;
#X connect 105 0 103 0;
#X connect 106 0 101 3;
#X connect 107 0 101 2;
#X connect 108 0 38 0;
#X connect 109 0 38 0;
#X connect 110 0 38 0;
#X connect 111 0 112 3;
#X connect 112 0 113 0;
#X connect 113 0 116 0;
#X connect 114 0 112 2;
#X connect 115 0 116 1;
#X connect 116 0 38 0;
#X connect 117 0 160 0;
#X connect 118 0 128 0;
#X connect 119 0 128 1;
#X connect 120 0 121 0;
#X connect 121 0 123 0;
#X connect 122 0 120 0;
#X connect 122 0 127 0;
#X connect 123 0 124 0;
#X connect 124 0 125 1;
#X connect 125 0 159 0;
#X connect 126 0 117 0;
#X connect 127 0 123 0;
#X connect 128 0 151 0;
#X connect 129 0 141 0;
#X connect 129 0 131 0;
#X connect 130 0 132 0;
#X connect 130 0 135 0;
#X connect 130 0 137 0;
#X connect 131 0 142 0;
#X connect 132 0 138 0;
#X connect 135 0 139 0;
#X connect 137 0 140 0;
#X connect 138 0 133 0;
#X connect 139 0 134 0;
#X connect 140 0 136 0;
#X connect 141 0 130 0;
#X connect 142 0 130 0;
#X connect 143 0 166 0;
#X connect 143 0 165 0;
#X connect 143 0 167 0;
#X connect 143 0 158 0;
#X connect 145 0 59 0;
#X connect 146 0 144 0;
#X connect 146 0 144 1;
#X connect 149 0 153 0;
#X connect 149 0 157 0;
#X connect 150 0 154 0;
#X connect 152 0 153 1;
#X connect 153 0 159 0;
#X connect 154 0 144 0;
#X connect 154 0 144 1;
#X connect 155 0 154 1;
#X connect 156 0 157 1;
#X connect 157 0 144 0;
#X connect 157 0 144 1;
#X connect 160 0 125 0;
#X connect 160 0 168 0;
#X connect 161 0 162 1;
#X connect 161 0 164 0;
#X connect 162 0 92 1;
#X connect 163 0 92 1;
#X connect 164 0 163 0;
#X connect 165 0 155 0;
#X connect 166 0 152 0;
#X connect 167 0 156 0;
#X connect 168 0 118 0;
#X connect 169 0 168 1;
