#N canvas 184 25 1211 964 12;
#X declare -path ..;
#X obj 127 -710 * 2;
#X floatatom 147 -681 5 0 0 0 - - -, f 5;
#X msg 127 -761 320;
#X msg 127 -790 set \$1;
#X msg 77 -790 10;
#X obj 727 -530 bng 20 250 50 0 empty empty empty 17 7 0 10 #fcfcfc
#000000 #000000;
#X obj 1077 -381 bng 15 250 50 0 empty empty empty 17 7 0 10 #fcfcfc
#000000 #000000;
#X obj 727 -381 bng 15 250 50 0 empty empty empty 17 7 0 10 #fcfcfc
#000000 #000000;
#X obj 200 470 dac~;
#X obj 507 150 noise~;
#X obj 295 277 line~;
#X obj 210 400 *~;
#X obj 210 429 *~ 0.5;
#X obj 300 410 hsl 100 15 0 1 0 0 empty empty empty -2 -8 0 10 #fcfcfc
#000000 #000000 0 1;
#X obj 300 140 bng 15 250 50 0 empty empty empty 17 7 0 10 #fcfcfc
#000000 #000000;
#X obj 300 164 t b b;
#X obj 506 298 vcf~;
#X floatatom 520 250 5 0 0 0 - - -, f 5;
#X obj 566 298 vcf~;
#X floatatom 580 250 5 0 0 0 - - -, f 5;
#X floatatom 620 250 5 0 0 0 - - -, f 5;
#X obj 670 310 phasor~;
#X obj 310 350 *~;
#X obj 560 430 hsl 100 15 0 1 0 0 empty empty empty -2 -8 0 10 #fcfcfc
#000000 #000000 0 1;
#X msg 520 200 1200;
#X obj 670 370 hip~;
#X msg 295 222 1 2;
#X obj 670 340 lop~;
#X obj 695 261 * 0.98;
#X obj 735 321 * 1.02;
#X obj 369 -764 metro;
#X obj 369 -790 tgl 15 0 empty empty empty 17 7 0 10 #fcfcfc #000000
#000000 1 1;
#X msg 401 -790 3000;
#X obj 410 360 +~;
#X obj 360 300 hsl 100 15 0 1 0 0 empty empty empty -2 -8 0 10 #fcfcfc
#000000 #000000 0 1;
#X msg 362 252 0 40;
#X obj 362 223 delay 40;
#X obj 470 449 *~;
#X obj 730 210 hsl 100 15 0 3 0 0 empty empty empty -2 -8 0 10 #fcfcfc
#000000 #000000 0 1;
#X obj 770 260 hsl 100 15 0 3 0 0 empty empty empty -2 -8 0 10 #fcfcfc
#000000 #000000 0 1;
#X obj 770 284 t b f;
#X obj 720 234 t b f;
#X msg 580 200 2000;
#X obj 766 -684 tgl 20 0 empty empty empty 17 7 0 10 #fcfcfc #000000
#000000 0 1;
#X obj 727 -650 spigot;
#X msg 660 180 2000;
#X obj 960 310 phasor~;
#X obj 960 370 hip~;
#X obj 960 340 lop~;
#X obj 985 261 * 0.98;
#X obj 1025 321 * 1.02;
#X obj 1020 210 hsl 100 15 0 3 0 0 empty empty empty -2 -8 0 10 #fcfcfc
#000000 #000000 0 1;
#X obj 1060 260 hsl 100 15 0 3 0 0 empty empty empty -2 -8 0 10 #fcfcfc
#000000 #000000 0 1;
#X obj 1060 284 t b f;
#X obj 1010 234 t b f;
#X obj 870 430 hsl 100 15 0 1 0 0 empty empty empty -2 -8 0 10 #fcfcfc
#000000 #000000 0 1;
#X obj 780 449 *~;
#X obj 510 380 +~;
#X obj 910 240 / 1.5;
#X obj 467 -30 noise~;
#X obj 518 -30 vline~;
#X obj 467 10 *~;
#X obj 667 -171 mtof;
#X obj 667 -112 expr 1000 / $f1;
#X floatatom 667 -83 5 0 0 0 - - -, f 5;
#X obj 667 -55 delread4~ \$0-ks;
#X obj 667 -26 *~ 0.99;
#X obj 667 3 lop~ 10000;
#X obj 897 91 *~ 0.25;
#X obj 897 120 dac~;
#X obj 727 -310 bng 15 250 50 0 empty empty empty 17 7 0 10 #fcfcfc
#000000 #000000;
#X obj 727 -286 t b b b;
#X msg 667 -240 60;
#X obj 467 43 delwrite~ \$0-ks 500;
#X obj 827 -150 hsl 100 15 1 30 1 1 empty empty empty -2 -8 0 10 #fcfcfc
#000000 #000000 5350 1;
#X floatatom 827 -128 5 0 0 0 - - -, f 5;
#X obj 897 61 *~;
#X obj 915 -44 osc~;
#X obj 915 -15 +~ 1;
#X obj 915 14 *~ 0.5;
#X obj 915 -68 * 1;
#X obj 933 -118 hsl 100 15 0.1 8 1 1 empty empty empty -2 -8 0 10 #fcfcfc
#000000 #000000 6450 1;
#X floatatom 933 -96 5 0 0 0 - - -, f 5;
#X obj 667 -142 t f f f;
#X obj 785 -84 * 1;
#X obj 1043 -118 hsl 100 15 0 10 0 1 empty empty empty -2 -8 0 10 #fcfcfc
#000000 #000000 2550 1;
#X obj 1043 -94 int;
#X obj 963 -18 hsl 100 15 0 1 0 1 empty empty empty -2 -8 0 10 #fcfcfc
#000000 #000000 2200 1;
#X obj 401 -820 loadbang;
#X obj 159 -571 noise~;
#X obj 159 -542 lop~ 100;
#X obj 159 -455 +~;
#X obj 159 -396 *~;
#X obj 159 -314 *~;
#X obj 177 -483 *~ -1;
#X obj 245 -480 hsl 100 15 0 100 0 1 empty empty empty -2 -8 0 10 #fcfcfc
#000000 #000000 9900 1;
#X floatatom 245 -427 5 0 0 0 - - -, f 5;
#X obj 245 -456 * 0.01;
#X obj 177 -340 * 0.5;
#X obj 177 -369 r \$0-osc-freq;
#X obj 177 -512 r~ \$0-osc-fb;
#X obj 141 -285 +~;
#X obj 141 -256 osc~;
#X obj 151 -227 s~ \$0-osc-fb;
#X obj 187 -72 hsl 100 15 0 1 0 1 empty empty empty -2 -8 0 10 #fcfcfc
#000000 #000000 3050 1;
#X obj 141 -48 *~ 0.25;
#X obj 159 -119 vline~;
#X obj 141 -90 *~;
#X obj 141 -17 dac~;
#X obj 257 -290 bng 15 250 50 0 empty empty empty 17 7 0 10 #fcfcfc
#000000 #000000;
#X obj 257 -266 t b b b;
#X obj 727 -179 s \$0-osc-freq;
#X obj 57 -359 r \$0-osc-freq;
#X obj 295 -420 hsl 100 15 0 100 0 1 empty empty empty -2 -8 0 10 #fcfcfc
#000000 #000000 150 1;
#X floatatom 295 -367 5 0 0 0 - - -, f 5;
#X obj 295 -396 * 0.01;
#X msg 159 -162 1 10;
#X obj 202 -189 delay 10;
#X msg 202 -162 0 30;
#X obj 415 -420 hsl 100 15 0 100 0 1 empty empty empty -2 -8 0 10 #fcfcfc
#000000 #000000 50 1;
#X obj 415 -396 * 0.05;
#X obj 355 -480 hsl 100 15 0 100 0 1 empty empty empty -2 -8 0 10 #fcfcfc
#000000 #000000 2950 1;
#X obj 355 -456 * 0.05;
#X msg 761 -530 600;
#X floatatom 795 -555 5 0 0 0 - - -, f 5;
#X msg 795 -595 2;
#X msg 865 -595 1.2;
#X msg 905 -595 1.1;
#X obj 761 -625 loadbang;
#X msg 830 -595 1.25;
#X msg 829 -530 15;
#X obj 1077 -530 bng 20 250 50 0 empty empty empty 17 7 0 10 #fcfcfc
#000000 #000000;
#X obj 1116 -684 tgl 20 0 empty empty empty 17 7 0 10 #fcfcfc #000000
#000000 1 1;
#X obj 1077 -650 spigot;
#X obj 1111 -625 loadbang;
#X msg 1145 -577 1.25;
#X msg 1111 -530 15;
#X msg 1179 -530 600;
#X obj 1145 -550 hsl 100 15 1.08 5 1 1 empty empty empty -2 -8 0 10
#fcfcfc #000000 #000000 944 1;
#X floatatom 1227 -490 5 0 0 0 - - -, f 5;
#X text 1227 -462 stop after #;
#X obj 937 -860 t b b;
#X msg 969 -797 set \$1;
#X msg 969 -768 36;
#X obj 1026 -684 tgl 20 0 empty empty empty 17 7 0 10 #fcfcfc #000000
#000000 1 1;
#X obj 987 -650 spigot;
#X obj 969 -739 delay;
#X obj 969 -826 random 800;
#X msg 451 -790 1400;
#X obj 667 -211 -;
#X msg 1322 -840 0.1;
#X msg 1267 -840 1;
#X obj 1157 -674 s \$0-relaxer;
#X obj 707 -240 r \$0-relaxer;
#X obj 943 62 hsl 100 15 0 1 0 1 empty empty empty -2 -8 0 10 #fcfcfc
#000000 #000000 5200 1;
#X obj 350 -900 declare -path ..;
#X obj 727 -500 bounce;
#X obj 1077 -500 drip;
#X obj 1157 -810 relax_num;
#X msg 518 -57 1 20 \, 0 20 20;
#X connect 0 0 1 0;
#X connect 1 0 3 0;
#X connect 2 0 0 0;
#X connect 3 0 2 0;
#X connect 4 0 3 0;
#X connect 5 0 156 0;
#X connect 6 0 70 0;
#X connect 6 0 109 0;
#X connect 6 0 158 1;
#X connect 7 0 70 0;
#X connect 7 0 109 0;
#X connect 9 0 16 0;
#X connect 10 0 11 0;
#X connect 11 0 12 0;
#X connect 12 0 8 0;
#X connect 12 0 8 1;
#X connect 13 0 12 1;
#X connect 14 0 15 0;
#X connect 15 0 26 0;
#X connect 15 1 36 0;
#X connect 16 0 18 0;
#X connect 17 0 16 1;
#X connect 18 0 22 0;
#X connect 19 0 18 1;
#X connect 20 0 18 2;
#X connect 20 0 16 2;
#X connect 21 0 27 0;
#X connect 22 0 33 0;
#X connect 23 0 37 1;
#X connect 24 0 17 0;
#X connect 25 0 37 0;
#X connect 26 0 10 0;
#X connect 27 0 25 0;
#X connect 28 0 27 1;
#X connect 29 0 25 1;
#X connect 30 0 44 0;
#X connect 30 0 133 0;
#X connect 30 0 145 0;
#X connect 31 0 30 0;
#X connect 32 0 30 1;
#X connect 33 0 11 1;
#X connect 34 0 22 1;
#X connect 35 0 10 0;
#X connect 36 0 35 0;
#X connect 37 0 57 0;
#X connect 38 0 41 0;
#X connect 39 0 40 0;
#X connect 40 0 29 0;
#X connect 40 1 29 1;
#X connect 41 0 28 0;
#X connect 41 1 28 1;
#X connect 42 0 19 0;
#X connect 43 0 44 1;
#X connect 44 0 5 0;
#X connect 45 0 21 0;
#X connect 45 0 28 0;
#X connect 45 0 29 0;
#X connect 45 0 58 0;
#X connect 46 0 48 0;
#X connect 47 0 56 0;
#X connect 48 0 47 0;
#X connect 49 0 48 1;
#X connect 50 0 47 1;
#X connect 51 0 54 0;
#X connect 52 0 53 0;
#X connect 53 0 50 0;
#X connect 53 1 50 1;
#X connect 54 0 49 0;
#X connect 54 1 49 1;
#X connect 55 0 56 1;
#X connect 56 0 57 1;
#X connect 57 0 33 1;
#X connect 58 0 46 0;
#X connect 58 0 50 0;
#X connect 58 0 49 0;
#X connect 59 0 61 0;
#X connect 60 0 61 1;
#X connect 61 0 73 0;
#X connect 62 0 83 0;
#X connect 62 0 111 0;
#X connect 63 0 64 0;
#X connect 64 0 65 0;
#X connect 65 0 66 0;
#X connect 66 0 67 0;
#X connect 67 0 73 0;
#X connect 67 0 76 0;
#X connect 68 0 69 0;
#X connect 68 0 69 1;
#X connect 70 0 71 0;
#X connect 71 0 159 0;
#X connect 71 2 72 0;
#X connect 72 0 149 0;
#X connect 74 0 75 0;
#X connect 75 0 84 1;
#X connect 76 0 68 0;
#X connect 77 0 78 0;
#X connect 78 0 79 0;
#X connect 79 0 76 1;
#X connect 80 0 77 0;
#X connect 81 0 82 0;
#X connect 82 0 80 1;
#X connect 83 0 63 0;
#X connect 83 1 84 0;
#X connect 83 2 80 0;
#X connect 84 0 67 1;
#X connect 85 0 86 0;
#X connect 86 0 82 0;
#X connect 87 0 79 1;
#X connect 88 0 32 0;
#X connect 89 0 90 0;
#X connect 90 0 91 0;
#X connect 91 0 92 0;
#X connect 92 0 93 0;
#X connect 93 0 101 1;
#X connect 94 0 91 1;
#X connect 95 0 97 0;
#X connect 96 0 92 1;
#X connect 97 0 96 0;
#X connect 98 0 93 1;
#X connect 99 0 98 0;
#X connect 100 0 94 0;
#X connect 101 0 102 0;
#X connect 102 0 103 0;
#X connect 102 0 107 0;
#X connect 104 0 105 1;
#X connect 105 0 108 1;
#X connect 105 0 108 0;
#X connect 106 0 107 1;
#X connect 107 0 105 0;
#X connect 109 0 110 0;
#X connect 110 0 116 0;
#X connect 110 1 117 0;
#X connect 112 0 101 0;
#X connect 113 0 115 0;
#X connect 114 0 98 1;
#X connect 115 0 114 0;
#X connect 116 0 106 0;
#X connect 117 0 118 0;
#X connect 118 0 106 0;
#X connect 119 0 120 0;
#X connect 120 0 114 0;
#X connect 121 0 122 0;
#X connect 122 0 96 0;
#X connect 123 0 156 1;
#X connect 124 0 156 2;
#X connect 125 0 124 0;
#X connect 126 0 124 0;
#X connect 127 0 124 0;
#X connect 128 0 129 0;
#X connect 128 0 123 0;
#X connect 128 0 130 0;
#X connect 129 0 124 0;
#X connect 130 0 156 3;
#X connect 131 0 157 0;
#X connect 131 0 158 0;
#X connect 132 0 133 1;
#X connect 133 0 131 0;
#X connect 134 0 135 0;
#X connect 134 0 136 0;
#X connect 134 0 137 0;
#X connect 135 0 138 0;
#X connect 136 0 157 1;
#X connect 137 0 157 3;
#X connect 138 0 157 2;
#X connect 141 0 143 0;
#X connect 141 1 147 0;
#X connect 142 0 143 0;
#X connect 143 0 146 0;
#X connect 144 0 145 1;
#X connect 145 0 141 0;
#X connect 146 0 131 0;
#X connect 147 0 142 0;
#X connect 148 0 30 1;
#X connect 149 0 62 0;
#X connect 150 0 158 3;
#X connect 151 0 158 2;
#X connect 153 0 149 1;
#X connect 154 0 68 1;
#X connect 156 0 7 0;
#X connect 157 0 6 0;
#X connect 158 0 152 0;
#X connect 159 0 60 0;
