#N canvas 130 131 755 684 12;
#X floatatom 432 376 5 0 0 0 - - -, f 5;
#X msg 432 315 13.5108;
#X msg 432 286 set \$1;
#X obj 432 346 / 2;
#X obj 222 242 delay;
#X obj 202 -148 bng 10 250 50 0 empty empty empty 17 7 0 10 #fcfcfc
#000000 #000000;
#X obj 222 206 t b f f;
#X obj 232 466 spigot;
#X floatatom 252 -121 5 0 0 0 div - -, f 5;
#X msg 432 136 600;
#X obj 271 406 > 15;
#X obj 222 2 t b b b;
#X obj 242 -218 inlet;
#X obj 292 -218 inlet;
#X obj 232 532 outlet;
#X msg 432 102 set \$1;
#X floatatom 252 -151 5 0 0 0 init - -, f 5;
#X obj 342 -218 inlet;
#X obj 222 62 s \$0-b-bang;
#X obj 202 -248 r \$0-b-bang;
#X obj 222 268 s \$0-b-bang;
#X obj 242 495 s \$0-b-retrig;
#X obj 265 92 r \$0-b-retrig;
#X obj 245 32 s \$0-b-retrig;
#X obj 182 432 r \$0-b-bang;
#X floatatom 252 -91 5 0 0 0 final - -, f 5;
#X obj 392 -218 inlet;
#X obj 265 122 t b b;
#X obj 432 405 s \$0-b-delt;
#X obj 202 342 r \$0-b-delt;
#X obj 222 172 r \$0-b-delt;
#X connect 0 0 28 0;
#X connect 1 0 3 0;
#X connect 2 0 1 0;
#X connect 3 0 0 0;
#X connect 4 0 20 0;
#X connect 6 0 4 0;
#X connect 6 1 4 1;
#X connect 6 2 2 0;
#X connect 7 0 14 0;
#X connect 7 0 21 0;
#X connect 8 0 3 1;
#X connect 9 0 2 0;
#X connect 10 0 7 1;
#X connect 11 0 18 0;
#X connect 11 1 23 0;
#X connect 11 2 9 0;
#X connect 12 0 11 0;
#X connect 13 0 16 0;
#X connect 15 0 9 0;
#X connect 16 0 15 0;
#X connect 17 0 8 0;
#X connect 19 0 5 0;
#X connect 22 0 27 0;
#X connect 24 0 7 0;
#X connect 25 0 10 1;
#X connect 26 0 25 0;
#X connect 27 0 4 0;
#X connect 27 1 1 0;
#X connect 29 0 10 0;
#X connect 30 0 6 0;
#X coords 0 -1 1 1 111 112 1 189 -171;
