#N canvas 182 49 821 701 12;
#X obj 148 234 bng 19 250 50 0 empty empty empty 0 -10 0 12 #fcfcfc #000000 #000000;
#X msg 148 308 1;
#X obj 189 331 del 3;
#X msg 189 355 0;
#X obj 145 389 biquad~ 0 0 1 -1 0;
#X obj 145 413 *~;
#X floatatom 221 307 5 0 0 0 - - - 0;
#X obj 407 280 loadbang;
#X msg 407 347 -0.25;
#X obj 407 372 line~;
#X msg 455 346 -0.25 \, 0.25 \$1;
#X obj 407 396 cos~;
#X obj 407 420 *~ 0.1;
#X obj 407 444 *~;
#X obj 407 468 hip~ 5;
#X floatatom 595 372 5 0 0 0 - - - 0;
#X obj 595 395 mtof;
#X obj 595 419 osc~ 440;
#X obj 595 443 *~;
#X obj 595 467 *~;
#X obj 630 467 *~;
#X floatatom 455 321 5 0 0 0 - - - 0;
#X obj 41 702 vcf~;
#X obj 53 556 random 4000;
#X obj 53 580 + 5000;
#X floatatom 53 604 5 0 0 0 - - - 0;
#X obj 66 629 loadbang;
#X msg 66 653 5;
#X floatatom 66 677 5 0 0 0 - - - 0;
#X obj 41 745 outlet~;
#X obj 147 -60 inlet;
#X obj 146 745 outlet~;
#X obj 409 745 outlet~;
#X obj 197 -60 inlet;
#X obj 247 -60 inlet;
#X obj 297 -60 inlet;
#X obj 347 -60 inlet;
#X obj 397 -60 inlet;
#X obj 447 -60 inlet;
#X obj 147 37 hsl 120 19 1 30 0 1 empty empty empty -2 -10 0 12 #fcfcfc #000000 #000000 8000 1;
#X obj 147 61 hsl 120 19 0 4000 0 1 empty empty empty -2 -10 0 12 #fcfcfc #000000 #000000 800 1;
#X obj 147 85 hsl 120 19 0 6000 0 1 empty empty empty -2 -10 0 12 #fcfcfc #000000 #000000 1400 1;
#X obj 147 110 hsl 120 19 0.1 20 0 1 empty empty empty -2 -10 0 12 #fcfcfc #000000 #000000 1800 1;
#X obj 147 134 hsl 120 19 0 100 0 1 empty empty empty -2 -10 0 12 #fcfcfc #000000 #000000 600 1;
#X obj 147 160 hsl 120 19 50 100 0 1 empty empty empty -2 -10 0 12 #fcfcfc #000000 #000000 3800 1;
#X connect 0 0 1 0;
#X connect 0 0 2 0;
#X connect 0 0 21 0;
#X connect 0 0 23 0;
#X connect 1 0 4 0;
#X connect 1 0 5 1;
#X connect 2 0 3 0;
#X connect 3 0 4 0;
#X connect 3 0 5 1;
#X connect 4 0 5 0;
#X connect 5 0 22 0;
#X connect 5 0 31 0;
#X connect 6 0 2 1;
#X connect 7 0 8 0;
#X connect 8 0 9 0;
#X connect 9 0 11 0;
#X connect 10 0 9 0;
#X connect 11 0 12 0;
#X connect 12 0 13 0;
#X connect 13 0 14 0;
#X connect 14 0 32 0;
#X connect 15 0 16 0;
#X connect 16 0 17 0;
#X connect 17 0 18 0;
#X connect 17 0 18 1;
#X connect 17 0 13 1;
#X connect 17 0 20 0;
#X connect 18 0 19 0;
#X connect 18 0 13 1;
#X connect 18 0 20 1;
#X connect 18 0 19 1;
#X connect 19 0 13 1;
#X connect 20 0 13 1;
#X connect 21 0 10 0;
#X connect 22 0 29 0;
#X connect 23 0 24 0;
#X connect 24 0 25 0;
#X connect 25 0 22 1;
#X connect 26 0 27 0;
#X connect 27 0 28 0;
#X connect 28 0 22 2;
#X connect 30 0 0 0;
#X connect 33 0 39 0;
#X connect 34 0 40 0;
#X connect 35 0 41 0;
#X connect 36 0 42 0;
#X connect 37 0 43 0;
#X connect 38 0 44 0;
#X connect 39 0 6 0;
#X connect 40 0 23 1;
#X connect 41 0 24 1;
#X connect 42 0 28 0;
#X connect 43 0 21 0;
#X connect 44 0 15 0;
#X coords 0 -1 1 1 180 180 1 100 10;
