#N canvas 83 52 636 280 12;
#X obj 100 159 sel 0;
#X obj 160 159 sel 0;
#X obj 100 130 % 2;
#X obj 160 130 % 4;
#X obj 220 159 sel 0;
#X obj 220 130 % 8;
#X obj 280 159 sel 0;
#X obj 280 130 % 16;
#X obj 340 159 sel 0;
#X obj 340 130 % 32;
#X obj 100 46 inlet;
#X obj 400 159 sel 0;
#X obj 400 130 % 64;
#X obj 460 159 sel 0;
#X obj 460 130 % 128;
#X obj 100 188 outlet;
#X obj 160 188 outlet;
#X obj 220 188 outlet;
#X obj 280 188 outlet;
#X obj 340 188 outlet;
#X obj 400 188 outlet;
#X obj 460 188 outlet;
#X obj 520 159 sel 0;
#X obj 520 188 outlet;
#X obj 520 130 % 256;
#X connect 0 0 15 0;
#X connect 1 0 16 0;
#X connect 2 0 0 0;
#X connect 3 0 1 0;
#X connect 4 0 17 0;
#X connect 5 0 4 0;
#X connect 6 0 18 0;
#X connect 7 0 6 0;
#X connect 8 0 19 0;
#X connect 9 0 8 0;
#X connect 10 0 2 0;
#X connect 10 0 3 0;
#X connect 10 0 5 0;
#X connect 10 0 7 0;
#X connect 10 0 9 0;
#X connect 10 0 12 0;
#X connect 10 0 14 0;
#X connect 10 0 24 0;
#X connect 11 0 20 0;
#X connect 12 0 11 0;
#X connect 13 0 21 0;
#X connect 14 0 13 0;
#X connect 22 0 23 0;
#X connect 24 0 22 0;
