#N canvas 110 30 589 414 12;
#X obj 100 189 sel 0;
#X obj 160 189 sel 0;
#X obj 220 189 sel 0;
#X obj 280 189 sel 0;
#X obj 340 189 sel 0;
#X obj 100 76 inlet;
#X obj 400 189 sel 0;
#X obj 460 189 sel 0;
#X obj 100 218 outlet;
#X obj 160 218 outlet;
#X obj 220 218 outlet;
#X obj 280 218 outlet;
#X obj 340 218 outlet;
#X obj 400 218 outlet;
#X obj 460 218 outlet;
#X obj 520 189 sel 0;
#X obj 520 218 outlet;
#X obj 100 160 % 3;
#X obj 160 160 % 9;
#X obj 220 160 % 27;
#X obj 280 160 % 81;
#X obj 340 160 % 243;
#X obj 400 160 % 729;
#X obj 460 160 % 2187;
#X obj 520 160 % 6561;
#X connect 0 0 8 0;
#X connect 1 0 9 0;
#X connect 2 0 10 0;
#X connect 3 0 11 0;
#X connect 4 0 12 0;
#X connect 5 0 17 0;
#X connect 5 0 18 0;
#X connect 5 0 19 0;
#X connect 5 0 20 0;
#X connect 5 0 21 0;
#X connect 5 0 22 0;
#X connect 5 0 23 0;
#X connect 5 0 24 0;
#X connect 6 0 13 0;
#X connect 7 0 14 0;
#X connect 15 0 16 0;
#X connect 17 0 0 0;
#X connect 18 0 1 0;
#X connect 19 0 2 0;
#X connect 20 0 3 0;
#X connect 21 0 4 0;
#X connect 22 0 6 0;
#X connect 23 0 7 0;
#X connect 24 0 15 0;
