#N canvas 20 25 1172 770 12;
#X floatatom 148 289 5 0 0 0 - - -, f 5;
#X obj 167 330 mod 2;
#X obj 217 330 mod 4;
#X obj 267 330 mod 8;
#X obj 316 330 mod 16;
#X obj 371 330 mod 32;
#X obj 167 354 sel 0;
#X obj 217 354 sel 0;
#X obj 267 354 sel 0;
#X obj 316 354 sel 0;
#X obj 371 354 sel 0;
#X obj 426 354 sel 0;
#X obj 426 330 mod 64;
#X obj 1165 439 sel 0;
#X obj 1108 410 mod 32;
#X obj 1108 439 sel 0;
#X obj 1108 381 - 16;
#X obj 1165 381 - 32;
#X obj 1165 410 mod 64;
#X obj 1052 439 sel 0;
#X obj 1052 410 mod 16;
#X obj 1052 381 - 8;
#X obj 148 40 inlet;
#X obj 148 540 outlet;
#X obj 198 540 outlet;
#X obj 248 540 outlet;
#X obj 298 540 outlet;
#X obj 348 540 outlet;
#X obj 398 540 outlet;
#X obj 448 540 outlet;
#X obj 498 540 outlet;
#X floatatom 86 167 5 0 0 0 - - -, f 5;
#X obj 54 190 metro;
#X obj 54 218 float;
#X obj 105 219 + 1;
#X floatatom 54 241 5 0 0 0 - - -, f 5;
#X msg 10 213 0;
#X obj 10 190 sel 1;
#X obj 11 164 tgl 15 0 empty empty empty 17 7 0 10 #fcfcfc #000000
#000000 0 1;
#X obj 476 354 sel 0;
#X obj 476 330 mod 128;
#X obj 180 140 bng 15 250 50 0 empty empty empty 17 7 0 10 #fcfcfc
#000000 #000000;
#X obj 150 140 bng 15 250 50 0 empty empty empty 17 7 0 10 #fcfcfc
#000000 #000000;
#X obj 240 140 bng 15 250 50 0 empty empty empty 17 7 0 10 #fcfcfc
#000000 #000000;
#X obj 210 140 bng 15 250 50 0 empty empty empty 17 7 0 10 #fcfcfc
#000000 #000000;
#X obj 300 140 bng 15 250 50 0 empty empty empty 17 7 0 10 #fcfcfc
#000000 #000000;
#X obj 270 140 bng 15 250 50 0 empty empty empty 17 7 0 10 #fcfcfc
#000000 #000000;
#X obj 360 140 bng 15 250 50 0 empty empty empty 17 7 0 10 #fcfcfc
#000000 #000000;
#X obj 330 140 bng 15 250 50 0 empty empty empty 17 7 0 10 #fcfcfc
#000000 #000000;
#X text 151 120 1;
#X text 179 120 /2;
#X text 209 120 /4;
#X text 239 120 /8;
#X text 265 120 /16;
#X text 295 120 /32;
#X text 325 120 /64;
#X text 353 120 /128;
#X obj 848 140 bng 15 250 50 0 empty empty empty 17 7 0 10 #fcfcfc
#000000 #000000;
#X obj 799 140 bng 15 250 50 0 empty empty empty 17 7 0 10 #fcfcfc
#000000 #000000;
#X obj 757 140 bng 15 250 50 0 empty empty empty 17 7 0 10 #fcfcfc
#000000 #000000;
#X obj 1002 439 sel 0;
#X obj 715 140 bng 15 250 50 0 empty empty empty 17 7 0 10 #fcfcfc
#000000 #000000;
#X obj 1002 381 - 4;
#X obj 1002 410 mod 8;
#X obj 952 439 sel 0;
#X obj 674 140 bng 15 250 50 0 empty empty empty 17 7 0 10 #fcfcfc
#000000 #000000;
#X obj 952 381 - 2;
#X obj 952 410 mod 4;
#X obj 620 290 sel 0;
#X obj 422 140 bng 15 250 50 0 empty empty empty 17 7 0 10 #fcfcfc
#000000 #000000;
#X obj 620 266 mod 3;
#X obj 670 290 sel 0;
#X obj 450 140 bng 15 250 50 0 empty empty empty 17 7 0 10 #fcfcfc
#000000 #000000;
#X obj 670 266 mod 6;
#X obj 720 290 sel 0;
#X obj 480 140 bng 15 250 50 0 empty empty empty 17 7 0 10 #fcfcfc
#000000 #000000;
#X obj 770 290 sel 0;
#X obj 510 140 bng 15 250 50 0 empty empty empty 17 7 0 10 #fcfcfc
#000000 #000000;
#X obj 770 266 mod 12;
#X obj 720 266 mod 9;
#X text 420 120 /3;
#X text 448 120 /6;
#X text 478 120 /9;
#X text 505 120 /12;
#X obj 902 439 sel 0;
#X obj 902 381 - 1;
#X obj 902 410 mod 2;
#X obj 634 140 bng 15 250 50 0 empty empty empty 17 7 0 10 #fcfcfc
#000000 #000000;
#X text 627 120 /2-1;
#X text 665 120 /4-2;
#X text 708 120 /8-4;
#X text 746 120 /16-8;
#X text 790 120 /32-16;
#X text 839 120 /64-32;
#X obj 548 540 outlet;
#X obj 598 540 outlet;
#X obj 648 540 outlet;
#X obj 698 540 outlet;
#X obj 848 540 outlet;
#X obj 898 540 outlet;
#X obj 948 540 outlet;
#X obj 998 540 outlet;
#X obj 1048 540 outlet;
#X obj 1098 540 outlet;
#X text 10 130 dev;
#X obj 820 290 sel 0;
#X obj 820 266 mod 15;
#X obj 870 290 sel 0;
#X obj 870 266 mod 18;
#X obj 748 540 outlet;
#X obj 798 540 outlet;
#X obj 540 140 bng 15 250 50 0 empty empty empty 17 7 0 10 #fcfcfc
#000000 #000000;
#X obj 570 140 bng 15 250 50 0 empty empty empty 17 7 0 10 #fcfcfc
#000000 #000000;
#X text 538 120 /15;
#X text 565 120 /18;
#X connect 0 0 1 0;
#X connect 0 0 2 0;
#X connect 0 0 3 0;
#X connect 0 0 4 0;
#X connect 0 0 5 0;
#X connect 0 0 12 0;
#X connect 0 0 16 0;
#X connect 0 0 17 0;
#X connect 0 0 21 0;
#X connect 0 0 23 0;
#X connect 0 0 40 0;
#X connect 0 0 42 0;
#X connect 0 0 62 0;
#X connect 0 0 66 0;
#X connect 0 0 70 0;
#X connect 0 0 73 0;
#X connect 0 0 79 0;
#X connect 0 0 78 0;
#X connect 0 0 85 0;
#X connect 0 0 106 0;
#X connect 0 0 108 0;
#X connect 1 0 6 0;
#X connect 2 0 7 0;
#X connect 3 0 8 0;
#X connect 4 0 9 0;
#X connect 5 0 10 0;
#X connect 6 0 24 0;
#X connect 6 0 41 0;
#X connect 7 0 25 0;
#X connect 7 0 44 0;
#X connect 8 0 26 0;
#X connect 8 0 43 0;
#X connect 9 0 27 0;
#X connect 9 0 46 0;
#X connect 10 0 28 0;
#X connect 10 0 45 0;
#X connect 11 0 29 0;
#X connect 11 0 48 0;
#X connect 12 0 11 0;
#X connect 13 0 57 0;
#X connect 13 0 103 0;
#X connect 14 0 15 0;
#X connect 15 0 58 0;
#X connect 15 0 102 0;
#X connect 16 0 14 0;
#X connect 17 0 18 0;
#X connect 18 0 13 0;
#X connect 19 0 59 0;
#X connect 19 0 101 0;
#X connect 20 0 19 0;
#X connect 21 0 20 0;
#X connect 22 0 0 0;
#X connect 31 0 32 1;
#X connect 32 0 33 0;
#X connect 33 0 35 0;
#X connect 34 0 33 1;
#X connect 35 0 34 0;
#X connect 35 0 0 0;
#X connect 36 0 35 0;
#X connect 37 0 36 0;
#X connect 38 0 37 0;
#X connect 38 0 32 0;
#X connect 39 0 30 0;
#X connect 39 0 47 0;
#X connect 40 0 39 0;
#X connect 60 0 61 0;
#X connect 60 0 100 0;
#X connect 62 0 63 0;
#X connect 63 0 60 0;
#X connect 64 0 65 0;
#X connect 64 0 99 0;
#X connect 66 0 67 0;
#X connect 67 0 64 0;
#X connect 68 0 69 0;
#X connect 68 0 94 0;
#X connect 70 0 68 0;
#X connect 71 0 72 0;
#X connect 71 0 95 0;
#X connect 73 0 71 0;
#X connect 74 0 75 0;
#X connect 74 0 96 0;
#X connect 76 0 77 0;
#X connect 76 0 97 0;
#X connect 78 0 76 0;
#X connect 79 0 74 0;
#X connect 84 0 87 0;
#X connect 84 0 98 0;
#X connect 85 0 86 0;
#X connect 86 0 84 0;
#X connect 105 0 109 0;
#X connect 105 0 111 0;
#X connect 106 0 105 0;
#X connect 107 0 110 0;
#X connect 107 0 112 0;
#X connect 108 0 107 0;
#X coords 0 -1 1 1 755 58 1 140 102;
