#N canvas 748 58 708 881 12;
#X floatatom 372 233 5 0 0 0 - - -, f 5;
#X msg 372 172 665.507;
#X msg 372 143 set \$1;
#X obj 162 99 delay;
#X obj 142 -291 bng 10 250 50 0 empty empty empty 17 7 0 10 #fcfcfc
#000000 #000000;
#X obj 162 63 t b f f;
#X obj 172 323 spigot;
#X floatatom 192 -264 5 0 0 0 div - -, f 5;
#X obj 162 -141 t b b b;
#X obj 182 -361 inlet;
#X obj 232 -361 inlet;
#X obj 172 389 outlet;
#X msg 372 -41 set \$1;
#X floatatom 192 -294 5 0 0 0 init - -, f 5;
#X obj 282 -361 inlet;
#X floatatom 192 -234 5 0 0 0 final - -, f 5;
#X obj 332 -361 inlet;
#X obj 205 -21 t b b;
#X obj 372 203 * 2;
#X obj 211 263 < 600;
#X msg 372 -7 15;
#X obj 185 -111 s \$0-d-retrig;
#X obj 205 -51 r \$0-d-retrig;
#X obj 142 -391 r \$0-d-bang;
#X obj 162 -81 s \$0-d-bang;
#X obj 162 29 r \$0-d-delt;
#X obj 162 125 s \$0-d-bang;
#X obj 372 262 s \$0-d-delt;
#X obj 142 199 r \$0-d-delt;
#X obj 122 289 r \$0-d-bang;
#X obj 182 352 s \$0-d-retrig;
#X connect 0 0 27 0;
#X connect 1 0 18 0;
#X connect 2 0 1 0;
#X connect 3 0 26 0;
#X connect 5 0 3 0;
#X connect 5 1 3 1;
#X connect 5 2 2 0;
#X connect 6 0 11 0;
#X connect 6 0 30 0;
#X connect 7 0 18 1;
#X connect 8 0 24 0;
#X connect 8 1 21 0;
#X connect 8 2 20 0;
#X connect 9 0 8 0;
#X connect 10 0 13 0;
#X connect 12 0 20 0;
#X connect 13 0 12 0;
#X connect 14 0 7 0;
#X connect 15 0 19 1;
#X connect 16 0 15 0;
#X connect 17 0 3 0;
#X connect 17 1 1 0;
#X connect 18 0 0 0;
#X connect 19 0 6 1;
#X connect 20 0 2 0;
#X connect 22 0 17 0;
#X connect 23 0 4 0;
#X connect 25 0 5 0;
#X connect 28 0 19 0;
#X connect 29 0 6 0;
#X coords 0 -1 1 1 109 110 1 131 -312;
