#N canvas 92 130 844 618 12;
#X obj 131 259 *~;
#X obj 201 95 noise~;
#X obj 201 155 *~;
#X floatatom 254 96 5 0 0 0 - - - 0;
#X obj 6 196 vline~;
#X floatatom 131 193 5 0 0 0 - - - 0;
#X obj 131 215 osc~ 99;
#X obj 331 386 *~;
#X floatatom 331 293 5 0 0 0 - - - 0;
#X obj 331 315 phasor~ 99;
#X obj 266 244 vline~;
#X obj 331 267 / 2;
#X floatatom 391 341 5 0 0 0 - - - 0;
#X obj 331 363 lop~ 1000;
#X msg 266 217 1 20 0 \, 0 100 20;
#X obj 201 125 lop~ 100;
#X obj 6 29 inlet;
#X obj 131 29 inlet;
#X obj 254 29 inlet;
#X obj 391 29 inlet;
#X obj 133 432 outlet~;
#X obj 203 432 outlet~;
#X obj 331 432 outlet~;
#X msg 6 169 1 40 0 \, 0 200 40;
#X connect 0 0 20 0;
#X connect 1 0 15 0;
#X connect 2 0 21 0;
#X connect 3 0 15 1;
#X connect 4 0 0 1;
#X connect 4 0 2 1;
#X connect 5 0 6 0;
#X connect 5 0 11 0;
#X connect 6 0 0 0;
#X connect 7 0 22 0;
#X connect 8 0 9 0;
#X connect 9 0 13 0;
#X connect 10 0 7 1;
#X connect 11 0 8 0;
#X connect 12 0 13 1;
#X connect 13 0 7 0;
#X connect 14 0 10 0;
#X connect 15 0 2 0;
#X connect 16 0 14 0;
#X connect 16 0 23 0;
#X connect 17 0 5 0;
#X connect 18 0 3 0;
#X connect 19 0 12 0;
#X connect 23 0 4 0;
