#N canvas 41 180 597 440 12;
#X obj 100 60 inlet;
#X obj 100 89 unpack s f;
#X obj 100 118 makefilename \$1-%s_;
#X obj 100 147 t b s;
#X obj 167 147 t b;
#X msg 100 176 0;
#X msg 167 176 1;
#X obj 132 250 spigot;
#X obj 182 250 spigot;
#X obj 221 225 == 0;
#X msg 182 279 \; \$1 bang;
#X obj 132 329 pack s f;
#X msg 132 358 \; \$1 \$2;
#X text 260 60 From acreil \; https://www.youtube.com/watch?v=2_P7MVQnmZk
;
#X text 300 110 [paramin \$0];
#X connect 0 0 1 0;
#X connect 1 0 2 0;
#X connect 1 1 4 0;
#X connect 1 1 11 1;
#X connect 2 0 3 0;
#X connect 3 0 5 0;
#X connect 3 1 7 0;
#X connect 3 1 8 0;
#X connect 4 0 6 0;
#X connect 5 0 7 1;
#X connect 5 0 9 0;
#X connect 6 0 7 1;
#X connect 6 0 9 0;
#X connect 7 0 11 0;
#X connect 8 0 10 0;
#X connect 9 0 8 1;
#X connect 11 0 12 0;
