#N canvas 29 97 363 452 12;
#X obj 60 196 t b b;
#X msg 92 272 set \$1;
#X msg 92 314 299;
#X obj 92 340 delay;
#X obj 92 223 random 800;
#X obj 60 -2 inlet;
#X obj 122 -2 inlet;
#X obj 92 369 outlet;
#X floatatom 179 151 5 0 0 0 delay - -, f 5;
#X floatatom 122 121 5 0 0 0 lo - -, f 5;
#X floatatom 179 121 5 0 0 0 hi - -, f 5;
#X obj 200 280 +;
#X obj 200 240 t b f;
#X obj 179 -2 inlet;
#X obj 290 150 t b f;
#X obj 290 190 -;
#X connect 0 0 2 0;
#X connect 0 1 4 0;
#X connect 1 0 2 0;
#X connect 2 0 3 0;
#X connect 3 0 7 0;
#X connect 4 0 11 0;
#X connect 5 0 0 0;
#X connect 6 0 9 0;
#X connect 9 0 12 0;
#X connect 9 0 14 0;
#X connect 10 0 15 0;
#X connect 11 0 8 0;
#X connect 11 0 1 0;
#X connect 12 0 11 0;
#X connect 12 1 11 1;
#X connect 13 0 10 0;
#X connect 14 0 15 0;
#X connect 14 1 15 1;
#X connect 15 0 4 1;
#X coords 0 -1 1 1 122 73 1 100 100;
