#N canvas 334 25 1192 870 12;
#X obj 100 97 tgl 20 0 empty empty empty 17 7 0 10 #fcfcfc #000000
#000000 1 1;
#X floatatom 153 95 5 0 0 0 - - -, f 5;
#X obj 660 261 readsf~;
#X obj 699 291 hsl 100 15 0 1 0 1 empty empty empty -2 -8 0 10 #fcfcfc
#000000 #000000 5450 1;
#X obj 660 320 *~ 0.5;
#X msg 660 232 open ../../music/samples/blips/kick1.wav \, 1;
#X obj 660 431 readsf~;
#X obj 699 461 hsl 100 15 0 1 0 1 empty empty empty -2 -8 0 10 #fcfcfc
#000000 #000000 5450 1;
#X obj 660 490 *~ 0.5;
#X obj 100 121 metro 50;
#X floatatom 100 208 5 0 0 0 - - -, f 5;
#X obj 50 121 sel 0;
#X msg 50 149 0;
#X obj 100 236 s \$0-metro;
#X obj 200 100 r \$0-metro;
#X obj 250 709 bng 15 250 50 0 empty empty empty 17 7 0 10 #fcfcfc
#000000 #000000;
#X obj 250 560 bng 20 250 50 0 empty empty empty 17 7 0 10 #fcfcfc
#000000 #000000;
#X obj 289 406 tgl 20 0 empty empty empty 17 7 0 10 #fcfcfc #000000
#000000 1 1;
#X obj 250 440 spigot;
#X obj 284 465 loadbang;
#X msg 284 560 15;
#X msg 352 560 600;
#X obj 318 540 hsl 100 15 1.08 5 1 1 empty empty empty -2 -8 0 10 #fcfcfc
#000000 #000000 0 1;
#X obj 149 330 tgl 20 0 empty empty empty 17 7 0 10 #fcfcfc #000000
#000000 1 1;
#X obj 110 360 spigot;
#X obj 250 590 drip;
#X obj 110 400 rand_delay;
#X msg 153 67 50;
#X msg 167 369 1000;
#X obj 100 179 + 0;
#X msg 100 150 1;
#X floatatom 513 1060 5 0 0 0 - - -, f 5;
#X obj 513 1179 *~ 0.6;
#X obj 552 1211 hsl 100 15 0 1 0 1 empty empty empty -2 -8 0 10 #fcfcfc
#000000 #000000 6750 1;
#X obj 613 880 del 500;
#X msg 613 909 1 50;
#X obj 563 860 bng 15 250 50 0 empty empty empty 17 7 0 10 #fcfcfc
#000000 #000000;
#X obj 563 950 line;
#X floatatom 563 979 5 0 0 0 - - -, f 5;
#X obj 538 1016 *~ 1;
#X obj 423 1020 hsl 100 15 0 1000 0 1 empty empty empty -2 -8 0 10
#fcfcfc #000000 #000000 3400 1;
#X msg 563 909 0 60;
#X obj 513 1240 *~ 0.5;
#X obj 643 730 bng 20 250 50 0 empty empty empty 17 7 0 10 #ffd479
#000000 #000000;
#X obj 923 1119 dac~;
#X obj 948 1080 catch~ \$0-audio;
#X obj 1013 849 catch~ \$0-glitch-out;
#X obj 513 1270 throw~ \$0-glitch-out;
#X obj 755 879 vline~;
#X obj 737 908 *~;
#X obj 1013 898 *~;
#X obj 1163 879 vline~;
#X obj 755 989 vline~;
#X obj 737 1018 *~;
#X obj 563 820 del 1060;
#X obj 563 1060 delwrite~ \$0-glitch_buf 500;
#X obj 513 1090 delread~ \$0-glitch_buf 500;
#X msg 755 960 0 40 \, 1 60 1000;
#X obj 513 1129 lop~ 2000;
#X obj 593 1130 hsl 100 15 20 15000 1 1 empty empty empty -2 -8 0 10
#fcfcfc #000000 #000000 5900 1;
#X obj 660 360 throw~ \$0-kick-dry;
#X obj 660 530 throw~ \$0-hat-dry;
#X obj 883 849 catch~ \$0-kick-dry;
#X obj 883 879 catch~ \$0-hat-dry;
#X floatatom 900 491 5 0 0 0 - - -, f 5;
#X floatatom 951 491 5 0 0 0 - - -, f 5;
#X floatatom 1003 491 5 0 0 0 - - -, f 5;
#X floatatom 1055 491 5 0 0 0 - - -, f 5;
#X floatatom 1107 491 5 0 0 0 - - -, f 5;
#X obj 900 578 print;
#X obj 900 521 pack f f f f f, f 30;
#X msg 900 550 \$1 \$2 \, \$3 \$4 \$5;
#X floatatom 760 740 5 0 0 0 - - -, f 5;
#X floatatom 811 740 5 0 0 0 - - -, f 5;
#X floatatom 862 740 5 0 0 0 - - -, f 5;
#X msg 760 799 1 \$1 \, 0 \$2 \$3;
#X obj 760 770 pack f f f, f 15;
#X obj 200 130 clock_div;
#X msg 318 513 1.05;
#X obj 770 930 loadbang;
#X msg 760 700 40;
#X msg 811 700 30;
#X msg 862 700 1000;
#X obj 760 650 loadbang;
#X msg 660 402 open ../../music/samples/long_hit1.wav \, 1;
#X obj 179 331 loadbang;
#X msg 225 370 3000;
#X obj 353 464 random 300;
#X connect 0 0 9 0;
#X connect 0 0 11 0;
#X connect 1 0 9 1;
#X connect 2 0 4 0;
#X connect 3 0 4 1;
#X connect 4 0 60 0;
#X connect 5 0 2 0;
#X connect 6 0 8 0;
#X connect 7 0 8 1;
#X connect 8 0 61 0;
#X connect 9 0 30 0;
#X connect 10 0 13 0;
#X connect 10 0 29 1;
#X connect 11 0 12 0;
#X connect 12 0 10 0;
#X connect 14 0 77 0;
#X connect 15 0 84 0;
#X connect 16 0 25 0;
#X connect 17 0 18 1;
#X connect 18 0 16 0;
#X connect 19 0 78 0;
#X connect 19 0 20 0;
#X connect 19 0 21 0;
#X connect 20 0 25 1;
#X connect 21 0 25 3;
#X connect 22 0 25 2;
#X connect 23 0 24 1;
#X connect 24 0 26 0;
#X connect 25 0 15 0;
#X connect 26 0 16 0;
#X connect 26 0 87 0;
#X connect 27 0 1 0;
#X connect 28 0 26 1;
#X connect 29 0 10 0;
#X connect 30 0 29 0;
#X connect 31 0 56 0;
#X connect 32 0 42 0;
#X connect 33 0 42 1;
#X connect 34 0 35 0;
#X connect 35 0 37 0;
#X connect 36 0 34 0;
#X connect 36 0 41 0;
#X connect 37 0 38 0;
#X connect 38 0 39 1;
#X connect 39 0 55 0;
#X connect 40 0 31 0;
#X connect 41 0 37 0;
#X connect 42 0 47 0;
#X connect 43 0 57 0;
#X connect 43 0 54 0;
#X connect 43 0 72 0;
#X connect 45 0 44 0;
#X connect 45 0 44 1;
#X connect 46 0 50 0;
#X connect 48 0 49 1;
#X connect 49 0 55 0;
#X connect 50 0 44 0;
#X connect 50 0 44 1;
#X connect 51 0 50 1;
#X connect 52 0 53 1;
#X connect 53 0 44 0;
#X connect 53 0 44 1;
#X connect 56 0 39 0;
#X connect 56 0 58 0;
#X connect 57 0 52 0;
#X connect 58 0 32 0;
#X connect 59 0 58 1;
#X connect 62 0 53 0;
#X connect 62 0 49 0;
#X connect 63 0 53 0;
#X connect 63 0 49 0;
#X connect 64 0 70 0;
#X connect 65 0 70 1;
#X connect 66 0 70 2;
#X connect 67 0 70 3;
#X connect 68 0 70 4;
#X connect 70 0 71 0;
#X connect 71 0 69 0;
#X connect 72 0 76 0;
#X connect 73 0 76 1;
#X connect 74 0 76 2;
#X connect 75 0 48 0;
#X connect 75 0 51 0;
#X connect 76 0 75 0;
#X connect 77 5 24 0;
#X connect 77 13 5 0;
#X connect 77 17 5 0;
#X connect 78 0 22 0;
#X connect 79 0 57 0;
#X connect 80 0 72 0;
#X connect 81 0 73 0;
#X connect 82 0 74 0;
#X connect 83 0 80 0;
#X connect 83 0 81 0;
#X connect 83 0 82 0;
#X connect 84 0 6 0;
#X connect 85 0 28 0;
#X connect 85 0 86 0;
#X connect 86 0 26 2;
#X connect 87 0 25 1;
